HIERARCHY
ROOT Hips
{
    OFFSET 0.0 0.0 0.0
    CHANNELS 6 Xposition Yposition Zposition Zrotation Xrotation Yrotation
    JOINT LeftHipJoint
    {
        OFFSET 0.1 0.0 0.0
        CHANNELS 3 Zrotation Xrotation Yrotation
        JOINT LeftUpLeg
        {
            OFFSET 122.51943608581978 0.0 0.0
            CHANNELS 3 Zrotation Xrotation Yrotation
            JOINT LeftLeg
            {
                OFFSET 0.0 0.0 -407.3478834750383
                CHANNELS 3 Zrotation Xrotation Yrotation
                JOINT LeftFoot
                {
                    OFFSET 0.0 0.0 -400.8995780590727
                    CHANNELS 3 Zrotation Xrotation Yrotation
                    End Site
                    {
                        OFFSET 0.0 -0.1 0.0
                    }
                }
            }
        }
    }
    JOINT LowerBack
    {
        OFFSET 0.0 0.0 0.1
        CHANNELS 3 Zrotation Xrotation Yrotation
        JOINT Spine
        {
            OFFSET 0.0 0.0 221.10478327584352
            CHANNELS 3 Zrotation Xrotation Yrotation
            JOINT Spine1
            {
                OFFSET 0.0 0.0 256.01816500104496
                CHANNELS 3 Zrotation Xrotation Yrotation
                JOINT LeftShoulder
                {
                    OFFSET 0.1 0.0 0.0
                    CHANNELS 3 Zrotation Xrotation Yrotation
                    JOINT LeftArm
                    {
                        OFFSET 143.75654661564408 0.0 0.0
                        CHANNELS 3 Zrotation Xrotation Yrotation
                        JOINT LeftForeArm
                        {
                            OFFSET 259.9361632680932 0.0 0.0
                            CHANNELS 3 Zrotation Xrotation Yrotation
                            JOINT LeftHand
                            {
                                OFFSET 239.99891223661794 0.0 0.0
                                CHANNELS 3 Zrotation Xrotation Yrotation
                                End Site
                                {
                                    OFFSET 0.1 0.0 0.0
                                }
                            }
                        }
                    }
                }
                JOINT Neck
                {
                    OFFSET 0.0 0.0 0.1
                    CHANNELS 3 Zrotation Xrotation Yrotation
                    JOINT Neck1
                    {
                        OFFSET 0.0 0.0 110.02212105351823
                        CHANNELS 3 Zrotation Xrotation Yrotation
                        End Site
                        {
                            OFFSET 0.0 0.0 116.33301594527732
                        }
                    }
                }
                JOINT RightShoulder
                {
                    OFFSET -0.1 0.0 0.0
                    CHANNELS 3 Zrotation Xrotation Yrotation
                    JOINT RightArm
                    {
                        OFFSET -143.75654661564408 0.0 0.0
                        CHANNELS 3 Zrotation Xrotation Yrotation
                        JOINT RightForeArm
                        {
                            OFFSET -259.9361632680932 0.0 0.0
                            CHANNELS 3 Zrotation Xrotation Yrotation
                            JOINT RightHand
                            {
                                OFFSET -239.99891223661794 0.0 0.0
                                CHANNELS 3 Zrotation Xrotation Yrotation
                                End Site
                                {
                                    OFFSET -0.1 0.0 0.0
                                }
                            }
                        }
                    }
                }
            }
        }
    }
    JOINT RightHipJoint
    {
        OFFSET -0.1 0.0 0.0
        CHANNELS 3 Zrotation Xrotation Yrotation
        JOINT RightUpLeg
        {
            OFFSET -122.51943608581978 0.0 0.0
            CHANNELS 3 Zrotation Xrotation Yrotation
            JOINT RightLeg
            {
                OFFSET 0.0 0.0 -407.3478834750383
                CHANNELS 3 Zrotation Xrotation Yrotation
                JOINT RightFoot
                {
                    OFFSET 0.0 0.0 -400.8995780590727
                    CHANNELS 3 Zrotation Xrotation Yrotation
                    End Site
                    {
                        OFFSET 0.0 -0.1 0.0
                    }
                }
            }
        }
    }
}
MOTION
Frames: 5
Frame Time: 0.03333333333333333
0.0 0.0 812.1448042554717 34.93621955054272 -5.418785495522063 4.804290964366739 0.0 0.0 0.0 0.011799875652659202 -9.267141542974372 -1.3035638766498467 -0.6754652976026322 26.437522335842672 1.2720434395459297 0.0 0.0 -3.975693351829396e-16 0.0 0.0 0.0 0.006240178557745613 -6.867297699950053 8.577370648637935 7.520686125438412 -2.4027004470677103e-16 2.4063543437938176e-15 0.0 0.0 0.0 7.13408848495223 12.51536979096998 66.9966962376828 -20.286221509566627 1.630418812752281e-14 -1.88927306664996e-14 3.1805546814635168e-15 0.0 0.0 0.0 0.0 0.0 -21.32302453677693 0.39556905876090737 -8.474625064560163 0.0 0.0 0.0 74.79722754818738 -56.28440059284571 36.92514528941916 68.86063641321223 1.0155012205797872e-14 7.509926353407501e-16 7.951386703658792e-16 0.0 0.0 0.0 0.0 0.0 -0.002078358916308116 -1.0646829095385302 -1.7389977001250596 -0.6785811036918922 20.76851485550939 -0.3990286184560468 0.0 0.0 0.0
0.0 0.0 812.1448042554717 35.001558439033644 -5.2683011384169305 4.779465193706986 0.0 0.0 0.0 0.013392584430236562 -9.346894628508263 -1.4000099777867763 -0.7275260603931518 26.417539648091438 1.423948747290667 0.0 0.0 -3.975693351829396e-16 0.0 0.0 0.0 0.0074623617290830255 -6.958710629895329 8.630355255164249 7.446365166507455 5.2091262458797844e-15 4.578447887074483e-16 0.0 0.0 0.0 6.472529382692853 12.697461710023127 67.0447318012746 -20.49339453606413 -8.549837788804702e-15 -1.5281994102998075e-14 -3.1805546814635168e-15 4.4139062980501586e-32 -1.5902773407317584e-15 0.0 0.0 0.0 -21.300748959210356 0.31466076703380425 -8.414650535133111 0.0 0.0 0.0 74.1676372255092 -55.58392168322521 36.53546820108651 68.35136504204733 -1.1467241098802194e-14 9.719385307344542e-17 3.975693351829396e-16 0.0 0.0 0.0 0.0 0.0 -0.0019066087112605923 -1.0440302058074886 -1.7764917719253097 -0.6932917345778533 20.684884339830795 -0.364604594409464 0.0 0.0 7.951386703658791e-16
0.0 0.0 812.1448042554717 35.10857106960456 -5.055260387806492 4.820676048978895 0.0 0.0 0.0 -0.0030697062536673555 -9.355794101773434 -1.5106223099409635 -0.7261123842025968 26.231986487080093 1.5148791250060594 0.0 0.0 0.0 0.0 0.0 0.0 -0.004811327056990536 -7.031993795937364 8.652183936007084 7.456703556277008 -3.863869514488418e-15 1.845435456262929e-15 0.0 0.0 -1.5902773407317584e-15 5.9542631780166495 12.895904849159145 67.01875038447706 -20.65293029918501 -1.237696901731347e-14 5.827118280709864e-15 3.1805546814635164e-15 8.827812596100317e-32 3.1805546814635164e-15 0.0 0.0 -1.5902773407317584e-15 -21.53935663025886 0.23260507989837875 -8.399186415362493 0.0 0.0 -1.5902773407317584e-15 73.62401777911252 -55.22741651275391 36.20593346679829 67.69548733726738 -2.2223026090478234e-15 -6.168797732247516e-15 -7.951386703658792e-16 0.0 0.0 0.0 0.0 0.0 -0.0038100338812466824 -1.112830538333502 -1.9452518256447577 -0.7179862383023307 20.652240672758296 -0.3401088520216998 0.0 0.0 -7.951386703658791e-16
0.0 0.0 812.1448042554717 35.3311330577526 -4.848238544336155 4.852634016167815 0.0 0.0 0.0 -0.009108207640031434 -9.425549832704037 -1.5980565316474225 -0.7460813971729631 26.07513884842808 1.5951831113607826 0.0 0.0 3.975693351829396e-16 0.0 0.0 0.0 -0.00932809152165402 -7.095316002225345 8.66418069916945 7.35131095369853 3.275962083849061e-15 1.3831061157437211e-15 0.0 0.0 0.0 5.268196428475762 12.964639665029159 67.0651707694366 -20.82428218869896 -6.289657526153582e-15 1.6630182222672995e-14 0.0 0.0 3.1805546814635168e-15 0.0 0.0 0.0 -21.812220393854876 0.21483602205097033 -8.258428173438723 0.0 0.0 0.0 72.7221269862292 -54.543843313720664 35.79820491620144 66.88465754839724 -3.5055905496693065e-15 -5.307970160540394e-15 -1.5902773407317584e-15 0.0 0.0 0.0 0.0 0.0 -0.004542756877072906 -1.1585019560266385 -2.037255622994429 -0.7351002527127256 20.548769281420252 -0.3773503581212349 0.0 0.0 -1.5902773407317582e-15
0.0 0.0 812.1448042554717 35.387648513803555 -4.772758052217486 4.85312056873826 0.0 0.0 0.0 -0.0037676331093891868 -9.40640961771848 -1.6226014551905363 -0.7672817605910569 25.875482870239733 1.627888589878087 -6.3611093629270335e-15 0.0 0.0 0.0 0.0 0.0 -0.005229966609359507 -6.982559999056552 8.705513459745596 7.290207155908528 3.419229864194646e-15 -2.608073649324842e-15 0.0 0.0 0.0 4.692336913925171 13.070187962960576 67.09275692291888 -21.00662444444515 4.286844165699515e-15 -5.674734135438021e-15 3.1805546814635168e-15 -6.620859447075238e-32 -2.3854160110976376e-15 0.0 0.0 0.0 -22.133793613484542 0.06705155039652118 -8.242494884830842 0.0 0.0 0.0 71.96021771312672 -53.946333887146885 35.257376820680086 66.22704678685089 -5.848928586962301e-15 1.1409376219300158e-14 7.951386703658792e-16 0.0 0.0 0.0 0.0 0.0 -0.0038333533663448423 -1.1149947707515269 -2.114869553300838 -0.7640658698476054 20.250464491835253 -0.33816067164296004 0.0 0.0 -7.951386703658792e-16
